<svg width="13" height="13" viewBox="0 0 13 13" fill="none" xmlns="http://www.w3.org/2000/svg">
<path d="M6.23927 1.65462C6.26337 1.6082 6.3006 1.56912 6.34676 1.5418C6.39291 1.51448 6.44616 1.5 6.50049 1.5C6.55482 1.5 6.60807 1.51448 6.65423 1.5418C6.70039 1.56912 6.73762 1.6082 6.76172 1.65462L8.03211 4.10795C8.1158 4.26942 8.23933 4.40912 8.39212 4.51506C8.5449 4.621 8.72236 4.69001 8.90928 4.71617L11.7503 5.11256C11.8042 5.11999 11.8547 5.14164 11.8963 5.17506C11.9379 5.20847 11.9689 5.25232 11.9857 5.30163C12.0025 5.35095 12.0045 5.40377 11.9915 5.45412C11.9785 5.50447 11.951 5.55034 11.912 5.58655L9.85739 7.49405C9.72189 7.61994 9.62051 7.77534 9.56198 7.94687C9.50344 8.11841 9.48951 8.30093 9.52137 8.47874L10.0064 11.1738C10.0159 11.2251 10.0101 11.2779 9.98965 11.3262C9.96919 11.3745 9.9349 11.4163 9.89069 11.4469C9.84648 11.4776 9.79414 11.4957 9.73963 11.4993C9.68512 11.5029 9.63065 11.4919 9.58242 11.4674L7.04274 10.1943C6.8754 10.1106 6.68923 10.0668 6.50022 10.0668C6.31121 10.0668 6.12503 10.1106 5.95769 10.1943L3.41857 11.4674C3.37036 11.4917 3.31595 11.5027 3.26153 11.499C3.20712 11.4953 3.15488 11.4771 3.11076 11.4465C3.06664 11.416 3.03241 11.3742 3.01197 11.3259C2.99152 11.2777 2.98568 11.225 2.99511 11.1738L3.47962 8.47926C3.51162 8.30137 3.49776 8.11873 3.43922 7.94709C3.38068 7.77545 3.27922 7.61997 3.1436 7.49405L1.08898 5.58707C1.04971 5.55091 1.02188 5.50496 1.00867 5.45446C0.995453 5.40395 0.99738 5.35093 1.01423 5.30141C1.03108 5.2519 1.06218 5.2079 1.10398 5.17442C1.14578 5.14094 1.19661 5.11932 1.25067 5.11203L4.09116 4.71617C4.27829 4.69021 4.45599 4.62129 4.60899 4.51534C4.76198 4.40939 4.88568 4.26958 4.96943 4.10795L6.23927 1.65462Z" fill="#EDCF5D" stroke="#EDCF5D" stroke-width="2" stroke-linecap="round" stroke-linejoin="round"/>
</svg>
